0
SECTION
2
HEADER
9
$INSUNITS
70
4
9
$ACADVER
1
AC1014
9
$HANDSEED
5
FFFF
0
ENDSEC
0
SECTION
2
TABLES
0
TABLE
2
VPORT
5
8
100
AcDbSymbolTable
0
ENDTAB
0
TABLE
2
LTYPE
5
5
100
AcDbSymbolTable
0
LTYPE
5
14
100
AcDbSymbolTableRecord
100
AcDbLinetypeTableRecord
2
BYBLOCK
70
0
0
LTYPE
5
15
100
AcDbSymbolTableRecord
100
AcDbLinetypeTableRecord
2
BYLAYER
70
0
0
ENDTAB
0
TABLE
2
LAYER
5
2
100
AcDbSymbolTable
70
2
0
LAYER
5
50
100
AcDbSymbolTableRecord
100
AcDbLayerTableRecord
2
0
70
0
6
CONTINUOUS
0
ENDTAB
0
TABLE
2
STYLE
5
3
100
AcDbSymbolTable
70
1
0
STYLE
5
11
100
AcDbSymbolTableRecord
100
AcDbTextStyleTableRecord
2
STANDARD
70
0
0
ENDTAB
0
TABLE
2
VIEW
5
6
100
AcDbSymbolTable
70
0
0
ENDTAB
0
TABLE
2
UCS
5
7
100
AcDbSymbolTable
70
0
0
ENDTAB
0
TABLE
2
APPID
5
9
100
AcDbSymbolTable
70
2
0
APPID
5
12
100
AcDbSymbolTableRecord
100
AcDbRegAppTableRecord
2
ACAD
70
0
0
ENDTAB
0
TABLE
2
DIMSTYLE
5
A
100
AcDbSymbolTable
70
1
0
ENDTAB
0
TABLE
2
BLOCK_RECORD
5
1
100
AcDbSymbolTable
70
1
0
BLOCK_RECORD
5
1F
100
AcDbSymbolTableRecord
100
AcDbBlockTableRecord
2
*MODEL_SPACE
0
BLOCK_RECORD
5
1B
100
AcDbSymbolTableRecord
100
AcDbBlockTableRecord
2
*PAPER_SPACE
0
ENDTAB
0
ENDSEC
0
SECTION
2
BLOCKS
0
BLOCK
5
20
100
AcDbEntity
100
AcDbBlockBegin
2
*MODEL_SPACE
0
ENDBLK
5
21
100
AcDbEntity
100
AcDbBlockEnd
0
BLOCK
5
1C
100
AcDbEntity
100
AcDbBlockBegin
2
*PAPER_SPACE
0
ENDBLK
5
1D
100
AcDbEntity
100
AcDbBlockEnd
0
ENDSEC
0
SECTION
2
ENTITIES
0
LWPOLYLINE
5
100
100
AcDbEntity
8
0
100
AcDbPolyline
90
56
70
1
43
0.0
10
81.000000000000014
20
-61.999999999999943
42
-0.41421356237309503
10
80.5
20
-62.499999999999943
10
-80.500000000000043
20
-62.499999999999943
42
-0.41421356237309503
10
-81.000000000000057
20
-61.999999999999943
10
-81.000000000000028
20
-36.249999999999936
10
-71.999999999999929
20
-36.249999999999929
10
-71.999999999999915
20
-32.249999999999915
10
-80.999999999999943
20
-32.249999999999915
10
-81.000000000000028
20
-28.249999999999925
10
-71.999999999999915
20
-28.249999999999929
10
-71.999999999999915
20
-24.249999999999929
10
-80.999999999999957
20
-24.249999999999929
10
-81.000000000000028
20
-20.249999999999936
10
-71.999999999999943
20
-20.249999999999932
10
-71.999999999999915
20
-16.249999999999925
10
-80.999999999999943
20
-16.249999999999929
10
-81.000000000000028
20
-12.249999999999929
10
-71.999999999999943
20
-12.249999999999925
10
-71.999999999999901
20
-8.2499999999999201
10
-80.999999999999943
20
-8.2499999999999236
10
-81.000000000000028
20
-4.2499999999999272
10
-71.999999999999929
20
-4.2499999999999281
10
-71.999999999999915
20
-0.24999999999992251
10
-80.999999999999943
20
-0.24999999999992362
10
-81.000000000000028
20
3.7500000000000711
10
-71.999999999999929
20
3.7500000000000719
10
-71.999999999999915
20
7.7500000000000764
10
-80.999999999999943
20
7.7500000000000746
10
-81.000000000000014
20
33.500000000000021
42
-0.41421356237309503
10
-80.500000000000028
20
34.000000000000014
10
80.5
20
34.000000000000028
42
-0.41421356237310025
10
81.000000000000057
20
33.500000000000028
10
81.000000000000028
20
7.7500000000000391
10
71.999999999999943
20
7.7500000000000515
10
71.999999999999915
20
3.7500000000000449
10
80.999999999999943
20
3.75000000000004
10
81.000000000000028
20
-0.24999999999995026
10
71.999999999999943
20
-0.24999999999995026
10
71.999999999999915
20
-4.2499999999999538
10
80.999999999999943
20
-4.2499999999999609
10
81.000000000000028
20
-8.2499999999999574
10
71.999999999999943
20
-8.249999999999952
10
71.999999999999915
20
-12.249999999999952
10
80.999999999999943
20
-12.249999999999959
10
81.000000000000028
20
-16.249999999999964
10
71.999999999999943
20
-16.249999999999954
10
71.999999999999915
20
-20.249999999999957
10
80.999999999999943
20
-20.249999999999964
10
81.000000000000014
20
-24.249999999999957
10
71.999999999999943
20
-24.24999999999995
10
71.999999999999915
20
-28.249999999999957
10
80.999999999999929
20
-28.249999999999964
10
81.000000000000014
20
-32.24999999999995
10
71.999999999999915
20
-32.249999999999943
10
71.999999999999915
20
-36.249999999999957
10
80.999999999999929
20
-36.249999999999957
0
LWPOLYLINE
5
101
100
AcDbEntity
8
0
100
AcDbPolyline
90
56
70
1
43
0.0
10
80.500000000000043
20
34.10000000000003
42
-0.41421356237309076
10
81.100000000000051
20
33.500000000000028
10
81.100000000000023
20
7.6500000000000394
10
72.099999999999937
20
7.650000000000051
10
72.099999999999923
20
3.8500000000000449
10
81.099999999999937
20
3.8500000000000401
10
81.100000000000023
20
-0.3499999999999503
10
72.099999999999937
20
-0.34999999999995035
10
72.099999999999923
20
-4.1499999999999542
10
81.099999999999937
20
-4.1499999999999604
10
81.100000000000023
20
-8.349999999999957
10
72.099999999999937
20
-8.3499999999999517
10
72.099999999999909
20
-12.149999999999952
10
81.099999999999937
20
-12.149999999999959
10
81.100000000000023
20
-16.349999999999966
10
72.099999999999937
20
-16.349999999999952
10
72.099999999999909
20
-20.149999999999963
10
81.099999999999937
20
-20.149999999999967
10
81.100000000000009
20
-24.349999999999955
10
72.099999999999937
20
-24.349999999999948
10
72.099999999999923
20
-28.149999999999959
10
81.099999999999923
20
-28.14999999999997
10
81.100000000000009
20
-32.349999999999945
10
72.099999999999923
20
-32.349999999999937
10
72.099999999999909
20
-36.149999999999956
10
81.099999999999923
20
-36.149999999999963
10
81.100000000000009
20
-61.999999999999943
42
-0.41421356237309503
10
80.5
20
-62.599999999999945
10
-80.500000000000043
20
-62.599999999999945
42
-0.41421356237309503
10
-81.100000000000051
20
-61.999999999999943
10
-81.100000000000023
20
-36.149999999999935
10
-72.099999999999923
20
-36.149999999999935
10
-72.099999999999923
20
-32.349999999999916
10
-81.099999999999937
20
-32.349999999999916
10
-81.100000000000023
20
-28.149999999999928
10
-72.099999999999923
20
-28.149999999999935
10
-72.099999999999909
20
-24.349999999999923
10
-81.099999999999966
20
-24.349999999999923
10
-81.100000000000023
20
-20.149999999999938
10
-72.099999999999937
20
-20.149999999999935
10
-72.099999999999909
20
-16.349999999999927
10
-81.099999999999937
20
-16.34999999999993
10
-81.100000000000023
20
-12.149999999999929
10
-72.099999999999937
20
-12.149999999999926
10
-72.099999999999909
20
-8.3499999999999215
10
-81.099999999999937
20
-8.3499999999999233
10
-81.100000000000023
20
-4.1499999999999275
10
-72.099999999999923
20
-4.1499999999999284
10
-72.099999999999923
20
-0.34999999999992254
10
-81.099999999999937
20
-0.34999999999992371
10
-81.100000000000023
20
3.8500000000000711
10
-72.099999999999923
20
3.8500000000000725
10
-72.099999999999923
20
7.6500000000000767
10
-81.099999999999937
20
7.6500000000000767
10
-81.100000000000023
20
33.500000000000021
42
-0.41421356237309503
10
-80.500000000000028
20
34.100000000000016
0
ENDSEC
0
SECTION
2
OBJECTS
0
DICTIONARY
5
C
100
AcDbDictionary
3
ACAD_GROUP
350
D
3
ACAD_MLINESTYLE
350
17
0
DICTIONARY
5
D
100
AcDbDictionary
0
DICTIONARY
5
1A
330
C
100
AcDbDictionary
0
DICTIONARY
5
17
100
AcDbDictionary
0
ENDSEC
0
EOF
