0
SECTION
2
HEADER
9
$INSUNITS
70
4
9
$ACADVER
1
AC1014
9
$HANDSEED
5
FFFF
0
ENDSEC
0
SECTION
2
TABLES
0
TABLE
2
VPORT
5
8
100
AcDbSymbolTable
0
ENDTAB
0
TABLE
2
LTYPE
5
5
100
AcDbSymbolTable
0
LTYPE
5
14
100
AcDbSymbolTableRecord
100
AcDbLinetypeTableRecord
2
BYBLOCK
70
0
0
LTYPE
5
15
100
AcDbSymbolTableRecord
100
AcDbLinetypeTableRecord
2
BYLAYER
70
0
0
ENDTAB
0
TABLE
2
LAYER
5
2
100
AcDbSymbolTable
70
2
0
LAYER
5
50
100
AcDbSymbolTableRecord
100
AcDbLayerTableRecord
2
0
70
0
6
CONTINUOUS
0
ENDTAB
0
TABLE
2
STYLE
5
3
100
AcDbSymbolTable
70
1
0
STYLE
5
11
100
AcDbSymbolTableRecord
100
AcDbTextStyleTableRecord
2
STANDARD
70
0
0
ENDTAB
0
TABLE
2
VIEW
5
6
100
AcDbSymbolTable
70
0
0
ENDTAB
0
TABLE
2
UCS
5
7
100
AcDbSymbolTable
70
0
0
ENDTAB
0
TABLE
2
APPID
5
9
100
AcDbSymbolTable
70
2
0
APPID
5
12
100
AcDbSymbolTableRecord
100
AcDbRegAppTableRecord
2
ACAD
70
0
0
ENDTAB
0
TABLE
2
DIMSTYLE
5
A
100
AcDbSymbolTable
70
1
0
ENDTAB
0
TABLE
2
BLOCK_RECORD
5
1
100
AcDbSymbolTable
70
1
0
BLOCK_RECORD
5
1F
100
AcDbSymbolTableRecord
100
AcDbBlockTableRecord
2
*MODEL_SPACE
0
BLOCK_RECORD
5
1B
100
AcDbSymbolTableRecord
100
AcDbBlockTableRecord
2
*PAPER_SPACE
0
ENDTAB
0
ENDSEC
0
SECTION
2
BLOCKS
0
BLOCK
5
20
100
AcDbEntity
100
AcDbBlockBegin
2
*MODEL_SPACE
0
ENDBLK
5
21
100
AcDbEntity
100
AcDbBlockEnd
0
BLOCK
5
1C
100
AcDbEntity
100
AcDbBlockBegin
2
*PAPER_SPACE
0
ENDBLK
5
1D
100
AcDbEntity
100
AcDbBlockEnd
0
ENDSEC
0
SECTION
2
ENTITIES
0
LWPOLYLINE
5
100
100
AcDbEntity
8
0
100
AcDbPolyline
90
164
70
1
43
0.0
10
-71.999999999999986
20
38.999999999999993
10
-71.999999999999943
20
49.500000000000014
10
72
20
49.5
10
72.000000000000085
20
38.999999999999886
10
81.000000000000071
20
38.999999999999872
10
81.000000000000071
20
36.999999999999865
10
72.000000000000085
20
36.999999999999879
10
72.000000000000085
20
34.999999999999886
10
81.000000000000071
20
34.999999999999872
10
81.000000000000071
20
32.999999999999872
10
72.000000000000071
20
32.999999999999886
10
72.000000000000071
20
30.999999999999893
10
81.000000000000071
20
30.999999999999879
10
81.000000000000057
20
28.999999999999876
10
72.000000000000071
20
28.999999999999886
10
72.000000000000057
20
26.99999999999989
10
81.000000000000057
20
26.999999999999879
10
81.000000000000057
20
24.999999999999872
10
72.000000000000057
20
24.999999999999886
10
72.000000000000057
20
22.999999999999886
10
81.000000000000057
20
22.999999999999872
10
81.000000000000057
20
20.999999999999869
10
72.000000000000057
20
20.999999999999879
10
72.000000000000057
20
18.999999999999893
10
81.000000000000057
20
18.999999999999879
10
81.000000000000028
20
16.999999999999872
10
72.000000000000057
20
16.999999999999886
10
72.000000000000043
20
14.999999999999897
10
81.000000000000028
20
14.999999999999885
10
81.000000000000028
20
12.999999999999879
10
72.000000000000043
20
12.999999999999892
10
72.000000000000043
20
10.999999999999893
10
81.000000000000028
20
10.999999999999881
10
81.000000000000028
20
8.9999999999998757
10
72.000000000000043
20
8.9999999999998881
10
72.000000000000043
20
6.9999999999998908
10
81.000000000000028
20
6.9999999999998774
10
81.000000000000014
20
4.9999999999998712
10
72.000000000000043
20
4.9999999999998845
10
72.000000000000028
20
2.9999999999998961
10
81.000000000000014
20
2.9999999999998828
10
81.000000000000014
20
0.99999999999987654
10
72.000000000000028
20
0.99999999999988987
10
72.000000000000028
20
-1.000000000000103
10
81.000000000000014
20
-1.0000000000001164
10
81.000000000000014
20
-3.0000000000001226
10
72.000000000000028
20
-3.0000000000001092
10
72.000000000000014
20
-5.0000000000001021
10
81.000000000000014
20
-5.0000000000001155
10
81
20
-7.0000000000001217
10
72.000000000000014
20
-7.0000000000001084
10
72.000000000000014
20
-9.0000000000001013
10
81
20
-9.0000000000001137
10
81
20
-11.000000000000121
10
72.000000000000014
20
-11.000000000000107
10
72.000000000000014
20
-13.000000000000099
10
81
20
-13.000000000000114
10
81
20
-15.000000000000121
10
72.000000000000014
20
-15.000000000000107
10
72
20
-17.000000000000099
10
81
20
-17.000000000000114
10
80.999999999999972
20
-19.000000000000121
10
72
20
-19.000000000000107
10
72
20
-21.000000000000099
10
80.999999999999972
20
-21.000000000000114
10
80.999999999999972
20
-23.000000000000117
10
72
20
-23.000000000000107
10
72
20
-25.000000000000099
10
80.999999999999972
20
-25.00000000000011
10
80.999999999999972
20
-27.000000000000117
10
72
20
-27.000000000000103
10
71.999999999999986
20
-29.000000000000096
10
80.999999999999972
20
-29.00000000000011
10
80.999999999999957
20
-31.000000000000117
10
71.999999999999986
20
-31.000000000000103
10
71.999999999999986
20
-33.000000000000099
10
80.999999999999957
20
-33.000000000000107
10
80.999999999999957
20
-35.000000000000114
10
71.999999999999972
20
-35.000000000000099
10
71.999999999999972
20
-37.000000000000092
10
80.999999999999957
20
-37.000000000000107
10
80.999999999999957
20
-39.000000000000114
10
71.999999999999972
20
-39.000000000000099
10
72.000000000000014
20
-49.5
10
-72.000000000000014
20
-49.5
10
-71.999999999999986
20
-38.999999999999993
10
-80.999999999999972
20
-38.999999999999993
10
-80.999999999999972
20
-36.999999999999986
10
-71.999999999999986
20
-36.999999999999986
10
-71.999999999999986
20
-34.999999999999993
10
-80.999999999999972
20
-34.999999999999993
10
-80.999999999999972
20
-32.999999999999986
10
-71.999999999999986
20
-32.999999999999986
10
-71.999999999999986
20
-30.999999999999996
10
-80.999999999999972
20
-30.999999999999996
10
-80.999999999999972
20
-28.999999999999989
10
-71.999999999999986
20
-28.999999999999989
10
-71.999999999999986
20
-26.999999999999996
10
-80.999999999999972
20
-26.999999999999996
10
-80.999999999999972
20
-24.999999999999993
10
-71.999999999999986
20
-24.999999999999993
10
-71.999999999999986
20
-23
10
-80.999999999999972
20
-23
10
-80.999999999999972
20
-20.999999999999993
10
-71.999999999999986
20
-20.999999999999993
10
-71.999999999999986
20
-19
10
-80.999999999999972
20
-19
10
-80.999999999999972
20
-16.999999999999993
10
-71.999999999999986
20
-16.999999999999993
10
-71.999999999999986
20
-15
10
-80.999999999999972
20
-15
10
-80.999999999999972
20
-12.999999999999993
10
-71.999999999999986
20
-12.999999999999993
10
-71.999999999999986
20
-11
10
-80.999999999999972
20
-11
10
-80.999999999999972
20
-8.9999999999999947
10
-71.999999999999986
20
-8.9999999999999947
10
-71.999999999999986
20
-7.0000000000000018
10
-80.999999999999972
20
-7.0000000000000018
10
-80.999999999999972
20
-4.9999999999999956
10
-71.999999999999986
20
-4.9999999999999956
10
-71.999999999999986
20
-3.0000000000000027
10
-80.999999999999972
20
-3.0000000000000027
10
-80.999999999999972
20
-0.99999999999999645
10
-71.999999999999986
20
-0.99999999999999645
10
-71.999999999999986
20
0.99999999999999645
10
-80.999999999999972
20
0.99999999999999645
10
-80.999999999999972
20
3.0000000000000027
10
-71.999999999999986
20
3.0000000000000027
10
-71.999999999999986
20
4.9999999999999911
10
-80.999999999999972
20
4.9999999999999911
10
-80.999999999999972
20
6.9999999999999973
10
-71.999999999999986
20
6.9999999999999973
10
-71.999999999999986
20
8.9999999999999947
10
-80.999999999999972
20
8.9999999999999947
10
-80.999999999999972
20
11
10
-71.999999999999986
20
11
10
-71.999999999999986
20
12.999999999999998
10
-80.999999999999972
20
12.999999999999998
10
-80.999999999999972
20
15.000000000000004
10
-71.999999999999986
20
15.000000000000004
10
-71.999999999999986
20
16.999999999999993
10
-80.999999999999972
20
16.999999999999993
10
-80.999999999999972
20
19
10
-71.999999999999986
20
19
10
-71.999999999999986
20
20.999999999999986
10
-80.999999999999972
20
20.999999999999986
10
-80.999999999999972
20
22.999999999999993
10
-71.999999999999986
20
22.999999999999993
10
-71.999999999999986
20
24.999999999999993
10
-80.999999999999972
20
24.999999999999993
10
-80.999999999999972
20
26.999999999999996
10
-71.999999999999986
20
26.999999999999996
10
-71.999999999999986
20
28.999999999999993
10
-80.999999999999972
20
28.999999999999993
10
-80.999999999999972
20
31
10
-71.999999999999986
20
31
10
-71.999999999999986
20
32.999999999999986
10
-80.999999999999972
20
32.999999999999986
10
-80.999999999999972
20
34.999999999999993
10
-71.999999999999986
20
34.999999999999993
10
-71.999999999999986
20
36.999999999999986
10
-80.999999999999972
20
36.999999999999986
10
-80.999999999999972
20
38.999999999999993
0
LWPOLYLINE
5
101
100
AcDbEntity
8
0
100
AcDbPolyline
90
164
70
1
43
0.0
10
81.129999999999967
20
-39.130000000000116
10
72.129999999999967
20
-39.130000000000102
10
72.13000000000001
20
-49.630000000000003
10
-72.13000000000001
20
-49.630000000000003
10
-72.129999999999981
20
-39.129999999999995
10
-81.129999999999981
20
-39.129999999999995
10
-81.129999999999981
20
-36.86999999999999
10
-72.129999999999981
20
-36.86999999999999
10
-72.129999999999981
20
-35.129999999999995
10
-81.129999999999981
20
-35.129999999999995
10
-81.129999999999981
20
-32.86999999999999
10
-72.129999999999981
20
-32.86999999999999
10
-72.129999999999981
20
-31.129999999999995
10
-81.129999999999981
20
-31.129999999999995
10
-81.129999999999981
20
-28.86999999999999
10
-72.129999999999981
20
-28.86999999999999
10
-72.129999999999981
20
-27.129999999999995
10
-81.129999999999981
20
-27.129999999999995
10
-81.129999999999981
20
-24.86999999999999
10
-72.129999999999981
20
-24.86999999999999
10
-72.129999999999981
20
-23.129999999999995
10
-81.129999999999981
20
-23.129999999999995
10
-81.129999999999981
20
-20.869999999999994
10
-72.129999999999981
20
-20.869999999999994
10
-72.129999999999981
20
-19.129999999999999
10
-81.129999999999981
20
-19.129999999999999
10
-81.129999999999981
20
-16.869999999999994
10
-72.129999999999981
20
-16.869999999999994
10
-72.129999999999981
20
-15.129999999999999
10
-81.129999999999981
20
-15.129999999999999
10
-81.129999999999981
20
-12.869999999999994
10
-72.129999999999981
20
-12.869999999999994
10
-72.129999999999981
20
-11.129999999999999
10
-81.129999999999981
20
-11.129999999999999
10
-81.129999999999981
20
-8.8699999999999939
10
-72.129999999999981
20
-8.8699999999999939
10
-72.129999999999981
20
-7.1300000000000017
10
-81.129999999999981
20
-7.1300000000000017
10
-81.129999999999981
20
-4.8699999999999957
10
-72.129999999999981
20
-4.8699999999999957
10
-72.129999999999981
20
-3.1300000000000026
10
-81.129999999999981
20
-3.1300000000000026
10
-81.129999999999981
20
-0.86999999999999644
10
-72.129999999999981
20
-0.86999999999999622
10
-72.129999999999981
20
0.86999999999999644
10
-81.129999999999981
20
0.86999999999999633
10
-81.129999999999981
20
3.1300000000000026
10
-72.129999999999981
20
3.1300000000000026
10
-72.129999999999981
20
4.8699999999999912
10
-81.129999999999981
20
4.8699999999999912
10
-81.129999999999981
20
7.1299999999999972
10
-72.129999999999981
20
7.1299999999999972
10
-72.129999999999981
20
8.8699999999999939
10
-81.129999999999981
20
8.8699999999999939
10
-81.129999999999981
20
11.129999999999999
10
-72.129999999999981
20
11.129999999999999
10
-72.129999999999981
20
12.869999999999999
10
-81.129999999999981
20
12.869999999999999
10
-81.129999999999981
20
15.130000000000003
10
-72.129999999999981
20
15.130000000000003
10
-72.129999999999981
20
16.869999999999994
10
-81.129999999999981
20
16.869999999999994
10
-81.129999999999981
20
19.129999999999999
10
-72.129999999999981
20
19.129999999999999
10
-72.129999999999981
20
20.86999999999999
10
-81.129999999999981
20
20.86999999999999
10
-81.129999999999981
20
23.129999999999992
10
-72.129999999999981
20
23.129999999999992
10
-72.129999999999981
20
24.86999999999999
10
-81.129999999999981
20
24.86999999999999
10
-81.129999999999981
20
27.129999999999995
10
-72.129999999999981
20
27.129999999999995
10
-72.129999999999981
20
28.869999999999997
10
-81.129999999999981
20
28.869999999999997
10
-81.129999999999981
20
31.129999999999999
10
-72.129999999999981
20
31.129999999999999
10
-72.129999999999981
20
32.86999999999999
10
-81.129999999999981
20
32.86999999999999
10
-81.129999999999981
20
35.129999999999995
10
-72.129999999999981
20
35.129999999999995
10
-72.129999999999981
20
36.869999999999983
10
-81.129999999999981
20
36.869999999999983
10
-81.129999999999981
20
39.129999999999988
10
-72.129999999999981
20
39.129999999999988
10
-72.129999999999953
20
49.63000000000001
10
72.129999999999995
20
49.630000000000003
10
72.130000000000081
20
39.129999999999882
10
81.130000000000067
20
39.129999999999868
10
81.130000000000067
20
36.869999999999862
10
72.130000000000081
20
36.869999999999877
10
72.130000000000081
20
35.129999999999889
10
81.130000000000067
20
35.129999999999875
10
81.130000000000067
20
32.86999999999987
10
72.130000000000067
20
32.869999999999884
10
72.130000000000067
20
31.129999999999892
10
81.130000000000067
20
31.129999999999882
10
81.130000000000052
20
28.869999999999877
10
72.130000000000067
20
28.869999999999891
10
72.130000000000067
20
27.129999999999889
10
81.130000000000052
20
27.129999999999875
10
81.130000000000052
20
24.869999999999873
10
72.130000000000067
20
24.869999999999884
10
72.130000000000067
20
23.129999999999885
10
81.130000000000052
20
23.129999999999875
10
81.130000000000052
20
20.86999999999987
10
72.130000000000052
20
20.869999999999884
10
72.130000000000052
20
19.129999999999892
10
81.130000000000052
20
19.129999999999878
10
81.130000000000024
20
16.869999999999873
10
72.130000000000052
20
16.869999999999887
10
72.130000000000052
20
15.129999999999896
10
81.130000000000024
20
15.129999999999884
10
81.130000000000024
20
12.86999999999988
10
72.130000000000052
20
12.869999999999893
10
72.130000000000052
20
11.129999999999892
10
81.130000000000024
20
11.12999999999988
10
81.130000000000024
20
8.8699999999998749
10
72.130000000000038
20
8.8699999999998873
10
72.130000000000038
20
7.1299999999998906
10
81.130000000000024
20
7.1299999999998773
10
81.13000000000001
20
4.8699999999998713
10
72.130000000000038
20
4.8699999999998846
10
72.130000000000024
20
3.129999999999896
10
81.13000000000001
20
3.1299999999998827
10
81.13000000000001
20
0.86999999999987643
10
72.130000000000024
20
0.86999999999988975
10
72.130000000000024
20
-0.87000000000010314
10
81.13000000000001
20
-0.87000000000011646
10
81.13000000000001
20
-3.1300000000001225
10
72.130000000000024
20
-3.1300000000001091
10
72.130000000000024
20
-4.8700000000001022
10
81.13000000000001
20
-4.8700000000001156
10
81.129999999999995
20
-7.1300000000001216
10
72.130000000000024
20
-7.1300000000001083
10
72.130000000000024
20
-8.8700000000001005
10
81.129999999999995
20
-8.8700000000001147
10
81.129999999999995
20
-11.13000000000012
10
72.13000000000001
20
-11.130000000000106
10
72.13000000000001
20
-12.8700000000001
10
81.129999999999995
20
-12.870000000000115
10
81.129999999999995
20
-15.13000000000012
10
72.13000000000001
20
-15.130000000000106
10
72.129999999999995
20
-16.8700000000001
10
81.129999999999995
20
-16.870000000000115
10
81.129999999999981
20
-19.130000000000116
10
72.129999999999995
20
-19.130000000000106
10
72.129999999999995
20
-20.8700000000001
10
81.129999999999981
20
-20.870000000000111
10
81.129999999999981
20
-23.130000000000116
10
72.129999999999995
20
-23.130000000000102
10
72.129999999999995
20
-24.870000000000097
10
81.129999999999981
20
-24.870000000000111
10
81.129999999999981
20
-27.130000000000116
10
72.129999999999995
20
-27.130000000000102
10
72.129999999999981
20
-28.870000000000097
10
81.129999999999981
20
-28.870000000000111
10
81.129999999999967
20
-31.130000000000116
10
72.129999999999981
20
-31.130000000000102
10
72.129999999999981
20
-32.870000000000097
10
81.129999999999967
20
-32.870000000000111
10
81.129999999999967
20
-35.130000000000116
10
72.129999999999967
20
-35.130000000000102
10
72.129999999999967
20
-36.870000000000097
10
81.129999999999967
20
-36.870000000000111
0
ENDSEC
0
SECTION
2
OBJECTS
0
DICTIONARY
5
C
100
AcDbDictionary
3
ACAD_GROUP
350
D
3
ACAD_MLINESTYLE
350
17
0
DICTIONARY
5
D
100
AcDbDictionary
0
DICTIONARY
5
1A
330
C
100
AcDbDictionary
0
DICTIONARY
5
17
100
AcDbDictionary
0
ENDSEC
0
EOF
