0
SECTION
2
HEADER
9
$INSUNITS
70
4
9
$ACADVER
1
AC1014
9
$HANDSEED
5
FFFF
0
ENDSEC
0
SECTION
2
TABLES
0
TABLE
2
VPORT
5
8
100
AcDbSymbolTable
0
ENDTAB
0
TABLE
2
LTYPE
5
5
100
AcDbSymbolTable
0
LTYPE
5
14
100
AcDbSymbolTableRecord
100
AcDbLinetypeTableRecord
2
BYBLOCK
70
0
0
LTYPE
5
15
100
AcDbSymbolTableRecord
100
AcDbLinetypeTableRecord
2
BYLAYER
70
0
0
ENDTAB
0
TABLE
2
LAYER
5
2
100
AcDbSymbolTable
70
2
0
LAYER
5
50
100
AcDbSymbolTableRecord
100
AcDbLayerTableRecord
2
0
70
0
6
CONTINUOUS
0
ENDTAB
0
TABLE
2
STYLE
5
3
100
AcDbSymbolTable
70
1
0
STYLE
5
11
100
AcDbSymbolTableRecord
100
AcDbTextStyleTableRecord
2
STANDARD
70
0
0
ENDTAB
0
TABLE
2
VIEW
5
6
100
AcDbSymbolTable
70
0
0
ENDTAB
0
TABLE
2
UCS
5
7
100
AcDbSymbolTable
70
0
0
ENDTAB
0
TABLE
2
APPID
5
9
100
AcDbSymbolTable
70
2
0
APPID
5
12
100
AcDbSymbolTableRecord
100
AcDbRegAppTableRecord
2
ACAD
70
0
0
ENDTAB
0
TABLE
2
DIMSTYLE
5
A
100
AcDbSymbolTable
70
1
0
ENDTAB
0
TABLE
2
BLOCK_RECORD
5
1
100
AcDbSymbolTable
70
1
0
BLOCK_RECORD
5
1F
100
AcDbSymbolTableRecord
100
AcDbBlockTableRecord
2
*MODEL_SPACE
0
BLOCK_RECORD
5
1B
100
AcDbSymbolTableRecord
100
AcDbBlockTableRecord
2
*PAPER_SPACE
0
ENDTAB
0
ENDSEC
0
SECTION
2
BLOCKS
0
BLOCK
5
20
100
AcDbEntity
100
AcDbBlockBegin
2
*MODEL_SPACE
0
ENDBLK
5
21
100
AcDbEntity
100
AcDbBlockEnd
0
BLOCK
5
1C
100
AcDbEntity
100
AcDbBlockBegin
2
*PAPER_SPACE
0
ENDBLK
5
1D
100
AcDbEntity
100
AcDbBlockEnd
0
ENDSEC
0
SECTION
2
ENTITIES
0
LWPOLYLINE
5
100
100
AcDbEntity
8
0
100
AcDbPolyline
90
68
70
1
43
0.0
10
72.000000000000085
20
29.999999999999893
10
81.000000000000057
20
29.999999999999879
10
81.000000000000057
20
25.999999999999886
10
72.000000000000057
20
25.999999999999901
10
72.000000000000071
20
21.999999999999893
10
81.000000000000028
20
21.999999999999883
10
81.000000000000028
20
17.999999999999886
10
72.000000000000057
20
17.999999999999897
10
72.000000000000057
20
13.999999999999888
10
81.000000000000028
20
13.999999999999876
10
81.000000000000028
20
9.9999999999998774
10
72.000000000000043
20
9.9999999999998916
10
72.000000000000043
20
5.9999999999998916
10
81.000000000000014
20
5.9999999999998792
10
81.000000000000014
20
1.9999999999998797
10
72.000000000000028
20
1.999999999999893
10
72.000000000000043
20
-2.0000000000001061
10
81.000000000000014
20
-2.0000000000001195
10
81.000000000000014
20
-6.000000000000119
10
72.000000000000014
20
-6.0000000000001048
10
72.000000000000014
20
-10.000000000000107
10
81.000000000000014
20
-10.000000000000123
10
81
20
-14.000000000000121
10
72.000000000000014
20
-14.000000000000108
10
72.000000000000014
20
-18.00000000000011
10
80.999999999999972
20
-18.000000000000121
10
80.999999999999972
20
-22.000000000000121
10
72
20
-22.000000000000107
10
72
20
-26.000000000000114
10
80.999999999999972
20
-26.000000000000124
10
80.999999999999972
20
-30.000000000000121
10
71.999999999999986
20
-30.000000000000107
10
72
20
-49.5
10
-72.000000000000014
20
-49.5
10
-71.999999999999986
20
-30
10
-80.999999999999972
20
-30
10
-80.999999999999972
20
-26.000000000000007
10
-72
20
-26.000000000000007
10
-71.999999999999986
20
-22
10
-80.999999999999972
20
-22
10
-80.999999999999972
20
-18.000000000000004
10
-72
20
-18.000000000000004
10
-71.999999999999986
20
-14.000000000000002
10
-80.999999999999972
20
-14.000000000000002
10
-80.999999999999972
20
-10.000000000000002
10
-72
20
-10.000000000000002
10
-71.999999999999986
20
-5.9999999999999982
10
-80.999999999999972
20
-5.9999999999999982
10
-80.999999999999972
20
-1.9999999999999996
10
-72
20
-1.9999999999999996
10
-71.999999999999986
20
1.9999999999999996
10
-80.999999999999972
20
1.9999999999999996
10
-80.999999999999972
20
5.9999999999999982
10
-72
20
5.9999999999999982
10
-71.999999999999986
20
9.9999999999999982
10
-80.999999999999972
20
9.9999999999999982
10
-80.999999999999972
20
13.999999999999995
10
-72
20
13.999999999999995
10
-71.999999999999986
20
18.000000000000004
10
-80.999999999999972
20
18.000000000000004
10
-80.999999999999972
20
22
10
-72
20
22
10
-71.999999999999986
20
26.000000000000007
10
-80.999999999999972
20
26.000000000000007
10
-80.999999999999972
20
30
10
-72
20
30
10
-71.999999999999943
20
49.500000000000014
10
72
20
49.5
0
LWPOLYLINE
5
101
100
AcDbEntity
8
0
100
AcDbPolyline
90
68
70
1
43
0.0
10
72.10000000000008
20
30.099999999999891
10
81.100000000000051
20
30.099999999999877
10
81.100000000000051
20
25.899999999999888
10
72.100000000000065
20
25.899999999999899
10
72.100000000000065
20
22.099999999999895
10
81.100000000000023
20
22.099999999999881
10
81.100000000000023
20
17.899999999999885
10
72.100000000000051
20
17.899999999999899
10
72.100000000000051
20
14.099999999999888
10
81.100000000000023
20
14.099999999999875
10
81.100000000000023
20
9.8999999999998778
10
72.100000000000051
20
9.899999999999892
10
72.100000000000051
20
6.0999999999998922
10
81.100000000000009
20
6.0999999999998789
10
81.100000000000009
20
1.8999999999998793
10
72.100000000000023
20
1.8999999999998927
10
72.100000000000037
20
-1.9000000000001063
10
81.100000000000009
20
-1.9000000000001194
10
81.100000000000009
20
-6.1000000000001187
10
72.100000000000023
20
-6.1000000000001053
10
72.100000000000023
20
-9.9000000000001069
10
81.100000000000009
20
-9.9000000000001229
10
81.099999999999994
20
-14.100000000000122
10
72.100000000000009
20
-14.100000000000108
10
72.100000000000009
20
-17.900000000000109
10
81.09999999999998
20
-17.900000000000123
10
81.09999999999998
20
-22.100000000000119
10
72.099999999999994
20
-22.100000000000108
10
72.099999999999994
20
-25.900000000000112
10
81.09999999999998
20
-25.900000000000126
10
81.09999999999998
20
-30.100000000000119
10
72.09999999999998
20
-30.100000000000104
10
72.099999999999994
20
-49.600000000000001
10
-72.099999999999994
20
-49.600000000000001
10
-72.09999999999998
20
-30.099999999999998
10
-81.09999999999998
20
-30.099999999999998
10
-81.09999999999998
20
-25.900000000000006
10
-72.099999999999994
20
-25.900000000000006
10
-72.09999999999998
20
-22.100000000000001
10
-81.09999999999998
20
-22.100000000000001
10
-81.09999999999998
20
-17.900000000000002
10
-72.099999999999994
20
-17.900000000000002
10
-72.09999999999998
20
-14.100000000000001
10
-81.09999999999998
20
-14.100000000000001
10
-81.09999999999998
20
-9.9000000000000021
10
-72.099999999999994
20
-9.9000000000000021
10
-72.09999999999998
20
-6.0999999999999988
10
-81.09999999999998
20
-6.0999999999999988
10
-81.09999999999998
20
-1.8999999999999995
10
-72.099999999999994
20
-1.8999999999999995
10
-72.09999999999998
20
1.8999999999999995
10
-81.09999999999998
20
1.8999999999999995
10
-81.09999999999998
20
6.0999999999999988
10
-72.099999999999994
20
6.0999999999999988
10
-72.09999999999998
20
9.8999999999999986
10
-81.09999999999998
20
9.8999999999999986
10
-81.09999999999998
20
14.099999999999994
10
-72.099999999999994
20
14.099999999999994
10
-72.09999999999998
20
17.900000000000006
10
-81.09999999999998
20
17.900000000000006
10
-81.09999999999998
20
22.100000000000001
10
-72.099999999999994
20
22.100000000000001
10
-72.09999999999998
20
25.900000000000006
10
-81.09999999999998
20
25.900000000000006
10
-81.09999999999998
20
30.099999999999998
10
-72.099999999999994
20
30.099999999999998
10
-72.099999999999937
20
49.600000000000009
10
72.099999999999994
20
49.600000000000001
0
ENDSEC
0
SECTION
2
OBJECTS
0
DICTIONARY
5
C
100
AcDbDictionary
3
ACAD_GROUP
350
D
3
ACAD_MLINESTYLE
350
17
0
DICTIONARY
5
D
100
AcDbDictionary
0
DICTIONARY
5
1A
330
C
100
AcDbDictionary
0
DICTIONARY
5
17
100
AcDbDictionary
0
ENDSEC
0
EOF
