0
SECTION
2
HEADER
9
$INSUNITS
70
4
9
$ACADVER
1
AC1014
9
$HANDSEED
5
FFFF
0
ENDSEC
0
SECTION
2
TABLES
0
TABLE
2
VPORT
5
8
100
AcDbSymbolTable
0
ENDTAB
0
TABLE
2
LTYPE
5
5
100
AcDbSymbolTable
0
LTYPE
5
14
100
AcDbSymbolTableRecord
100
AcDbLinetypeTableRecord
2
BYBLOCK
70
0
0
LTYPE
5
15
100
AcDbSymbolTableRecord
100
AcDbLinetypeTableRecord
2
BYLAYER
70
0
0
ENDTAB
0
TABLE
2
LAYER
5
2
100
AcDbSymbolTable
70
2
0
LAYER
5
50
100
AcDbSymbolTableRecord
100
AcDbLayerTableRecord
2
0
70
0
6
CONTINUOUS
0
ENDTAB
0
TABLE
2
STYLE
5
3
100
AcDbSymbolTable
70
1
0
STYLE
5
11
100
AcDbSymbolTableRecord
100
AcDbTextStyleTableRecord
2
STANDARD
70
0
0
ENDTAB
0
TABLE
2
VIEW
5
6
100
AcDbSymbolTable
70
0
0
ENDTAB
0
TABLE
2
UCS
5
7
100
AcDbSymbolTable
70
0
0
ENDTAB
0
TABLE
2
APPID
5
9
100
AcDbSymbolTable
70
2
0
APPID
5
12
100
AcDbSymbolTableRecord
100
AcDbRegAppTableRecord
2
ACAD
70
0
0
ENDTAB
0
TABLE
2
DIMSTYLE
5
A
100
AcDbSymbolTable
70
1
0
ENDTAB
0
TABLE
2
BLOCK_RECORD
5
1
100
AcDbSymbolTable
70
1
0
BLOCK_RECORD
5
1F
100
AcDbSymbolTableRecord
100
AcDbBlockTableRecord
2
*MODEL_SPACE
0
BLOCK_RECORD
5
1B
100
AcDbSymbolTableRecord
100
AcDbBlockTableRecord
2
*PAPER_SPACE
0
ENDTAB
0
ENDSEC
0
SECTION
2
BLOCKS
0
BLOCK
5
20
100
AcDbEntity
100
AcDbBlockBegin
2
*MODEL_SPACE
0
ENDBLK
5
21
100
AcDbEntity
100
AcDbBlockEnd
0
BLOCK
5
1C
100
AcDbEntity
100
AcDbBlockBegin
2
*PAPER_SPACE
0
ENDBLK
5
1D
100
AcDbEntity
100
AcDbBlockEnd
0
ENDSEC
0
SECTION
2
ENTITIES
0
LWPOLYLINE
5
100
100
AcDbEntity
8
0
100
AcDbPolyline
90
136
70
1
43
0.0
10
81.000000000000014
20
-61.999999999999943
42
-0.41421356237310542
10
80.5
20
-62.499999999999936
10
-80.500000000000043
20
-62.499999999999915
42
-0.41421356237310542
10
-81.000000000000028
20
-61.999999999999943
10
-80.999999999999915
20
-45.249999999999922
10
-71.999999999999943
20
-45.249999999999922
10
-71.999999999999943
20
-43.249999999999929
10
-80.999999999999929
20
-43.249999999999929
10
-80.999999999999929
20
-41.249999999999922
10
-71.999999999999943
20
-41.249999999999929
10
-71.999999999999957
20
-39.249999999999929
10
-80.999999999999929
20
-39.249999999999929
10
-80.999999999999929
20
-37.249999999999929
10
-71.999999999999957
20
-37.249999999999929
10
-71.999999999999957
20
-35.249999999999929
10
-80.999999999999929
20
-35.249999999999929
10
-80.999999999999929
20
-33.249999999999929
10
-71.999999999999943
20
-33.249999999999929
10
-71.999999999999943
20
-31.249999999999929
10
-80.999999999999929
20
-31.249999999999929
10
-80.999999999999929
20
-29.249999999999922
10
-71.999999999999957
20
-29.249999999999922
10
-71.999999999999957
20
-27.249999999999925
10
-80.999999999999929
20
-27.249999999999925
10
-80.999999999999929
20
-25.249999999999929
10
-71.999999999999957
20
-25.249999999999929
10
-71.999999999999957
20
-23.249999999999929
10
-80.999999999999929
20
-23.249999999999929
10
-80.999999999999915
20
-21.249999999999929
10
-71.999999999999957
20
-21.249999999999929
10
-71.999999999999957
20
-19.249999999999929
10
-80.999999999999915
20
-19.249999999999932
10
-80.999999999999915
20
-17.249999999999929
10
-71.999999999999957
20
-17.249999999999929
10
-71.999999999999957
20
-15.249999999999931
10
-80.999999999999915
20
-15.249999999999932
10
-80.999999999999915
20
-13.249999999999931
10
-71.999999999999972
20
-13.249999999999929
10
-71.999999999999957
20
-11.249999999999931
10
-80.999999999999915
20
-11.249999999999932
10
-80.999999999999915
20
-9.2499999999999325
10
-71.999999999999957
20
-9.2499999999999307
10
-71.999999999999957
20
-7.2499999999999334
10
-80.999999999999929
20
-7.2499999999999343
10
-80.999999999999929
20
-5.2499999999999325
10
-71.999999999999957
20
-5.2499999999999316
10
-71.999999999999972
20
-3.2499999999999343
10
-80.999999999999929
20
-3.2499999999999347
10
-80.999999999999929
20
-1.2499999999999329
10
-71.999999999999972
20
-1.2499999999999321
10
-71.999999999999972
20
0.75000000000006528
10
-80.999999999999929
20
0.7500000000000645
10
-80.999999999999929
20
2.7500000000000662
10
-71.999999999999972
20
2.7500000000000666
10
-71.999999999999972
20
4.7500000000000639
10
-80.999999999999929
20
4.7500000000000639
10
-80.999999999999929
20
6.7500000000000648
10
-71.999999999999972
20
6.7500000000000657
10
-71.999999999999972
20
8.7500000000000639
10
-80.999999999999929
20
8.7500000000000622
10
-80.999999999999929
20
10.750000000000064
10
-71.999999999999972
20
10.750000000000066
10
-71.999999999999972
20
12.750000000000064
10
-80.999999999999929
20
12.75000000000006
10
-80.999999999999929
20
14.750000000000064
10
-71.999999999999972
20
14.750000000000066
10
-71.999999999999972
20
16.750000000000064
10
-80.999999999999929
20
16.75000000000006
10
-81.000000000000028
20
33.500000000000021
42
-0.41421356237308721
10
-80.500000000000028
20
34.000000000000014
10
80.500000000000028
20
34
42
-0.41421356237307422
10
81.000000000000028
20
33.500000000000028
10
80.999999999999929
20
16.750000000000028
10
71.999999999999986
20
16.750000000000036
10
71.999999999999986
20
14.750000000000036
10
80.999999999999929
20
14.750000000000032
10
80.999999999999929
20
12.75000000000003
10
71.999999999999986
20
12.750000000000036
10
71.999999999999972
20
10.750000000000037
10
80.999999999999929
20
10.750000000000032
10
80.999999999999929
20
8.750000000000032
10
71.999999999999972
20
8.7500000000000355
10
71.999999999999972
20
6.7500000000000382
10
80.999999999999929
20
6.7500000000000338
10
80.999999999999929
20
4.750000000000032
10
71.999999999999972
20
4.7500000000000364
10
71.999999999999972
20
2.7500000000000391
10
80.999999999999929
20
2.7500000000000346
10
80.999999999999929
20
0.75000000000003286
10
71.999999999999972
20
0.7500000000000373
10
71.999999999999972
20
-1.24999999999996
10
80.999999999999929
20
-1.2499999999999645
10
80.999999999999929
20
-3.2499999999999662
10
71.999999999999972
20
-3.2499999999999618
10
71.999999999999972
20
-5.2499999999999591
10
80.999999999999929
20
-5.2499999999999636
10
80.999999999999929
20
-7.2499999999999654
10
71.999999999999972
20
-7.2499999999999609
10
71.999999999999972
20
-9.2499999999999574
10
80.999999999999915
20
-9.2499999999999627
10
80.999999999999915
20
-11.249999999999964
10
71.999999999999972
20
-11.249999999999961
10
71.999999999999972
20
-13.249999999999957
10
80.999999999999915
20
-13.249999999999961
10
80.999999999999915
20
-15.249999999999964
10
71.999999999999957
20
-15.249999999999959
10
71.999999999999957
20
-17.249999999999957
10
80.999999999999915
20
-17.249999999999961
10
80.999999999999915
20
-19.249999999999964
10
71.999999999999957
20
-19.249999999999957
10
71.999999999999957
20
-21.249999999999957
10
80.999999999999915
20
-21.249999999999961
10
80.999999999999915
20
-23.249999999999961
10
71.999999999999957
20
-23.249999999999957
10
71.999999999999957
20
-25.249999999999954
10
80.999999999999915
20
-25.249999999999957
10
80.999999999999915
20
-27.249999999999957
10
71.999999999999957
20
-27.24999999999995
10
71.999999999999957
20
-29.24999999999995
10
80.999999999999915
20
-29.249999999999954
10
80.999999999999915
20
-31.249999999999961
10
71.999999999999943
20
-31.249999999999957
10
71.999999999999943
20
-33.24999999999995
10
80.999999999999915
20
-33.249999999999957
10
80.999999999999915
20
-35.249999999999964
10
71.999999999999943
20
-35.249999999999957
10
71.999999999999943
20
-37.249999999999957
10
80.999999999999915
20
-37.249999999999957
10
80.999999999999915
20
-39.249999999999957
10
71.999999999999943
20
-39.249999999999957
10
71.999999999999943
20
-41.249999999999957
10
80.999999999999915
20
-41.249999999999957
10
80.999999999999915
20
-43.249999999999964
10
71.999999999999943
20
-43.249999999999957
10
71.999999999999943
20
-45.24999999999995
10
80.999999999999886
20
-45.249999999999957
0
LWPOLYLINE
5
101
100
AcDbEntity
8
0
100
AcDbPolyline
90
136
70
1
43
0.0
10
-72.129999999999967
20
14.880000000000065
10
-72.129999999999967
20
16.620000000000065
10
-81.129999999999924
20
16.620000000000061
10
-81.130000000000024
20
33.500000000000021
42
-0.41421356237308676
10
-80.500000000000028
20
34.130000000000017
10
80.500000000000028
20
34.130000000000003
42
-0.41421356237307849
10
81.130000000000024
20
33.500000000000028
10
81.129999999999924
20
16.620000000000029
10
72.129999999999981
20
16.620000000000033
10
72.129999999999981
20
14.880000000000035
10
81.129999999999924
20
14.880000000000031
10
81.129999999999924
20
12.620000000000031
10
72.129999999999981
20
12.620000000000037
10
72.129999999999967
20
10.880000000000036
10
81.129999999999924
20
10.880000000000031
10
81.129999999999924
20
8.6200000000000312
10
72.129999999999967
20
8.6200000000000347
10
72.129999999999967
20
6.8800000000000381
10
81.129999999999924
20
6.8800000000000336
10
81.129999999999924
20
4.6200000000000321
10
72.129999999999967
20
4.6200000000000365
10
72.129999999999967
20
2.880000000000039
10
81.129999999999924
20
2.8800000000000345
10
81.129999999999924
20
0.62000000000003286
10
72.129999999999967
20
0.62000000000003708
10
72.129999999999967
20
-1.1199999999999601
10
81.129999999999924
20
-1.1199999999999644
10
81.129999999999924
20
-3.3799999999999661
10
72.129999999999967
20
-3.3799999999999617
10
72.129999999999967
20
-5.1199999999999593
10
81.129999999999924
20
-5.1199999999999637
10
81.129999999999924
20
-7.3799999999999653
10
72.129999999999967
20
-7.3799999999999608
10
72.129999999999967
20
-9.1199999999999584
10
81.12999999999991
20
-9.1199999999999619
10
81.12999999999991
20
-11.379999999999963
10
72.129999999999967
20
-11.37999999999996
10
72.129999999999967
20
-13.119999999999958
10
81.12999999999991
20
-13.119999999999962
10
81.12999999999991
20
-15.379999999999963
10
72.129999999999953
20
-15.379999999999958
10
72.129999999999953
20
-17.119999999999958
10
81.12999999999991
20
-17.119999999999962
10
81.12999999999991
20
-19.37999999999996
10
72.129999999999953
20
-19.379999999999956
10
72.129999999999953
20
-21.119999999999955
10
81.12999999999991
20
-21.119999999999962
10
81.12999999999991
20
-23.37999999999996
10
72.129999999999953
20
-23.379999999999956
10
72.129999999999953
20
-25.119999999999955
10
81.12999999999991
20
-25.119999999999962
10
81.12999999999991
20
-27.379999999999956
10
72.129999999999953
20
-27.379999999999953
10
72.129999999999953
20
-29.119999999999951
10
81.12999999999991
20
-29.119999999999955
10
81.12999999999991
20
-31.37999999999996
10
72.129999999999953
20
-31.379999999999953
10
72.129999999999953
20
-33.119999999999955
10
81.12999999999991
20
-33.119999999999962
10
81.12999999999991
20
-35.37999999999996
10
72.129999999999953
20
-35.37999999999996
10
72.129999999999953
20
-37.119999999999955
10
81.12999999999991
20
-37.119999999999962
10
81.12999999999991
20
-39.37999999999996
10
72.129999999999953
20
-39.379999999999953
10
72.129999999999939
20
-41.119999999999955
10
81.12999999999991
20
-41.119999999999955
10
81.12999999999991
20
-43.379999999999967
10
72.129999999999939
20
-43.379999999999953
10
72.129999999999939
20
-45.119999999999948
10
81.129999999999882
20
-45.119999999999962
10
81.130000000000024
20
-61.999999999999943
42
-0.41421356237310331
10
80.5
20
-62.629999999999939
10
-80.500000000000043
20
-62.62999999999991
42
-0.41421356237310331
10
-81.130000000000024
20
-61.999999999999943
10
-81.12999999999991
20
-45.119999999999926
10
-72.129999999999953
20
-45.119999999999926
10
-72.129999999999953
20
-43.379999999999932
10
-81.129999999999924
20
-43.379999999999932
10
-81.129999999999924
20
-41.119999999999919
10
-72.129999999999953
20
-41.119999999999933
10
-72.129999999999953
20
-39.379999999999924
10
-81.129999999999924
20
-39.379999999999924
10
-81.129999999999924
20
-37.119999999999933
10
-72.129999999999953
20
-37.119999999999933
10
-72.129999999999953
20
-35.379999999999932
10
-81.129999999999924
20
-35.379999999999932
10
-81.129999999999924
20
-33.119999999999926
10
-72.129999999999953
20
-33.119999999999926
10
-72.129999999999953
20
-31.379999999999928
10
-81.129999999999924
20
-31.379999999999928
10
-81.129999999999924
20
-29.119999999999923
10
-72.129999999999953
20
-29.119999999999923
10
-72.129999999999953
20
-27.379999999999924
10
-81.129999999999924
20
-27.379999999999924
10
-81.129999999999924
20
-25.11999999999993
10
-72.129999999999953
20
-25.11999999999993
10
-72.129999999999953
20
-23.379999999999932
10
-81.129999999999924
20
-23.379999999999932
10
-81.12999999999991
20
-21.11999999999993
10
-72.129999999999953
20
-21.11999999999993
10
-72.129999999999953
20
-19.379999999999928
10
-81.12999999999991
20
-19.379999999999932
10
-81.12999999999991
20
-17.11999999999993
10
-72.129999999999953
20
-17.11999999999993
10
-72.129999999999953
20
-15.37999999999993
10
-81.12999999999991
20
-15.379999999999932
10
-81.12999999999991
20
-13.119999999999932
10
-72.129999999999967
20
-13.11999999999993
10
-72.129999999999953
20
-11.37999999999993
10
-81.12999999999991
20
-11.379999999999932
10
-81.12999999999991
20
-9.1199999999999317
10
-72.129999999999953
20
-9.1199999999999299
10
-72.129999999999953
20
-7.3799999999999333
10
-81.129999999999924
20
-7.3799999999999342
10
-81.129999999999924
20
-5.1199999999999326
10
-72.129999999999953
20
-5.1199999999999317
10
-72.129999999999967
20
-3.3799999999999342
10
-81.129999999999924
20
-3.3799999999999346
10
-81.129999999999924
20
-1.119999999999933
10
-72.129999999999967
20
-1.1199999999999317
10
-72.129999999999967
20
0.62000000000006539
10
-81.129999999999924
20
0.62000000000006439
10
-81.129999999999924
20
2.8800000000000665
10
-72.129999999999967
20
2.880000000000067
10
-72.129999999999967
20
4.6200000000000641
10
-81.129999999999924
20
4.6200000000000632
10
-81.129999999999924
20
6.8800000000000647
10
-72.129999999999967
20
6.8800000000000665
10
-72.129999999999967
20
8.6200000000000632
10
-81.129999999999924
20
8.6200000000000614
10
-81.129999999999924
20
10.880000000000063
10
-72.129999999999967
20
10.880000000000065
10
-72.129999999999967
20
12.620000000000065
10
-81.129999999999924
20
12.620000000000061
10
-81.129999999999924
20
14.880000000000063
0
ENDSEC
0
SECTION
2
OBJECTS
0
DICTIONARY
5
C
100
AcDbDictionary
3
ACAD_GROUP
350
D
3
ACAD_MLINESTYLE
350
17
0
DICTIONARY
5
D
100
AcDbDictionary
0
DICTIONARY
5
1A
330
C
100
AcDbDictionary
0
DICTIONARY
5
17
100
AcDbDictionary
0
ENDSEC
0
EOF
