0
SECTION
2
HEADER
9
$INSUNITS
70
4
9
$ACADVER
1
AC1014
9
$HANDSEED
5
FFFF
0
ENDSEC
0
SECTION
2
TABLES
0
TABLE
2
VPORT
5
8
100
AcDbSymbolTable
0
ENDTAB
0
TABLE
2
LTYPE
5
5
100
AcDbSymbolTable
0
LTYPE
5
14
100
AcDbSymbolTableRecord
100
AcDbLinetypeTableRecord
2
BYBLOCK
70
0
0
LTYPE
5
15
100
AcDbSymbolTableRecord
100
AcDbLinetypeTableRecord
2
BYLAYER
70
0
0
ENDTAB
0
TABLE
2
LAYER
5
2
100
AcDbSymbolTable
70
2
0
LAYER
5
50
100
AcDbSymbolTableRecord
100
AcDbLayerTableRecord
2
0
70
0
6
CONTINUOUS
0
ENDTAB
0
TABLE
2
STYLE
5
3
100
AcDbSymbolTable
70
1
0
STYLE
5
11
100
AcDbSymbolTableRecord
100
AcDbTextStyleTableRecord
2
STANDARD
70
0
0
ENDTAB
0
TABLE
2
VIEW
5
6
100
AcDbSymbolTable
70
0
0
ENDTAB
0
TABLE
2
UCS
5
7
100
AcDbSymbolTable
70
0
0
ENDTAB
0
TABLE
2
APPID
5
9
100
AcDbSymbolTable
70
2
0
APPID
5
12
100
AcDbSymbolTableRecord
100
AcDbRegAppTableRecord
2
ACAD
70
0
0
ENDTAB
0
TABLE
2
DIMSTYLE
5
A
100
AcDbSymbolTable
70
1
0
ENDTAB
0
TABLE
2
BLOCK_RECORD
5
1
100
AcDbSymbolTable
70
1
0
BLOCK_RECORD
5
1F
100
AcDbSymbolTableRecord
100
AcDbBlockTableRecord
2
*MODEL_SPACE
0
BLOCK_RECORD
5
1B
100
AcDbSymbolTableRecord
100
AcDbBlockTableRecord
2
*PAPER_SPACE
0
ENDTAB
0
ENDSEC
0
SECTION
2
BLOCKS
0
BLOCK
5
20
100
AcDbEntity
100
AcDbBlockBegin
2
*MODEL_SPACE
0
ENDBLK
5
21
100
AcDbEntity
100
AcDbBlockEnd
0
BLOCK
5
1C
100
AcDbEntity
100
AcDbBlockBegin
2
*PAPER_SPACE
0
ENDBLK
5
1D
100
AcDbEntity
100
AcDbBlockEnd
0
ENDSEC
0
SECTION
2
ENTITIES
0
LWPOLYLINE
5
100
100
AcDbEntity
8
0
100
AcDbPolyline
90
4
70
1
43
0.0
10
29.000000000000071
20
-50.249999999999972
10
29.000000000000071
20
-59.249999999999972
10
31.000000000000078
20
-59.249999999999972
10
31.000000000000078
20
-50.249999999999972
0
LWPOLYLINE
5
101
100
AcDbEntity
8
0
100
AcDbPolyline
90
4
70
1
43
0.0
10
13.000000000000075
20
-50.249999999999972
10
13.000000000000075
20
-59.249999999999972
10
15.00000000000008
20
-59.249999999999972
10
15.00000000000008
20
-50.249999999999972
0
LWPOLYLINE
5
102
100
AcDbEntity
8
0
100
AcDbPolyline
90
4
70
1
43
0.0
10
-2.9999999999999227
20
-50.249999999999957
10
-2.9999999999999227
20
-59.249999999999972
10
-0.99999999999991651
20
-59.249999999999972
10
-0.99999999999991651
20
-50.249999999999979
0
LWPOLYLINE
5
103
100
AcDbEntity
8
0
100
AcDbPolyline
90
4
70
1
43
0.0
10
-18.999999999999918
20
-50.249999999999957
10
-18.999999999999918
20
-59.249999999999972
10
-16.999999999999915
20
-59.249999999999972
10
-16.999999999999915
20
-50.249999999999972
0
LWPOLYLINE
5
104
100
AcDbEntity
8
0
100
AcDbPolyline
90
4
70
1
43
0.0
10
-34.999999999999915
20
-50.249999999999972
10
-34.999999999999915
20
-59.249999999999979
10
-32.999999999999908
20
-59.249999999999972
10
-32.999999999999908
20
-50.249999999999957
0
LWPOLYLINE
5
105
100
AcDbEntity
8
0
100
AcDbPolyline
90
4
70
1
43
0.0
10
-30.999999999999922
20
-50.249999999999957
10
-30.999999999999922
20
-59.249999999999964
10
-28.999999999999915
20
-59.249999999999964
10
-28.999999999999915
20
-50.249999999999957
0
LWPOLYLINE
5
106
100
AcDbEntity
8
0
100
AcDbPolyline
90
4
70
1
43
0.0
10
-14.999999999999925
20
-50.249999999999957
10
-14.999999999999925
20
-59.249999999999964
10
-12.999999999999918
20
-59.249999999999964
10
-12.999999999999918
20
-50.249999999999957
0
LWPOLYLINE
5
107
100
AcDbEntity
8
0
100
AcDbPolyline
90
4
70
1
43
0.0
10
1.0000000000000764
20
-50.249999999999957
10
1.0000000000000764
20
-59.249999999999972
10
3.0000000000000826
20
-59.249999999999972
10
3.0000000000000826
20
-50.249999999999957
0
LWPOLYLINE
5
108
100
AcDbEntity
8
0
100
AcDbPolyline
90
4
70
1
43
0.0
10
17.000000000000071
20
-50.249999999999957
10
17.000000000000071
20
-59.249999999999972
10
19.000000000000078
20
-59.249999999999972
10
19.000000000000078
20
-50.249999999999972
0
LWPOLYLINE
5
109
100
AcDbEntity
8
0
100
AcDbPolyline
90
4
70
1
43
0.0
10
33.000000000000071
20
-50.249999999999957
10
33.000000000000071
20
-59.249999999999972
10
35.000000000000078
20
-59.249999999999972
10
35.000000000000078
20
-50.249999999999979
0
LWPOLYLINE
5
110
100
AcDbEntity
8
0
100
AcDbPolyline
90
4
70
1
43
0.0
10
25.000000000000071
20
-50.249999999999972
10
25.000000000000071
20
-59.249999999999972
10
27.000000000000078
20
-59.249999999999972
10
27.000000000000078
20
-50.249999999999972
0
LWPOLYLINE
5
111
100
AcDbEntity
8
0
100
AcDbPolyline
90
4
70
1
43
0.0
10
9.0000000000000746
20
-50.249999999999972
10
9.0000000000000746
20
-59.249999999999972
10
11.000000000000082
20
-59.249999999999972
10
11.000000000000082
20
-50.249999999999972
0
LWPOLYLINE
5
112
100
AcDbEntity
8
0
100
AcDbPolyline
90
4
70
1
43
0.0
10
-6.9999999999999174
20
-50.249999999999972
10
-6.9999999999999174
20
-59.249999999999972
10
-4.9999999999999112
20
-59.249999999999972
10
-4.9999999999999112
20
-50.249999999999972
0
LWPOLYLINE
5
113
100
AcDbEntity
8
0
100
AcDbPolyline
90
4
70
1
43
0.0
10
-22.999999999999915
20
-50.249999999999972
10
-22.999999999999915
20
-59.249999999999972
10
-20.999999999999908
20
-59.249999999999972
10
-20.999999999999908
20
-50.249999999999972
0
LWPOLYLINE
5
114
100
AcDbEntity
8
0
100
AcDbPolyline
90
4
70
1
43
0.0
10
-38.999999999999908
20
-50.249999999999972
10
-38.999999999999908
20
-59.249999999999979
10
-36.999999999999901
20
-59.249999999999972
10
-36.999999999999901
20
-50.249999999999979
0
LWPOLYLINE
5
115
100
AcDbEntity
8
0
100
AcDbPolyline
90
4
70
1
43
0.0
10
-26.999999999999918
20
-50.249999999999957
10
-26.999999999999918
20
-59.249999999999964
10
-24.999999999999911
20
-59.249999999999964
10
-24.999999999999911
20
-50.249999999999957
0
LWPOLYLINE
5
116
100
AcDbEntity
8
0
100
AcDbPolyline
90
4
70
1
43
0.0
10
-10.999999999999922
20
-50.249999999999957
10
-10.999999999999922
20
-59.249999999999964
10
-8.9999999999999147
20
-59.249999999999964
10
-8.9999999999999147
20
-50.249999999999957
0
LWPOLYLINE
5
117
100
AcDbEntity
8
0
100
AcDbPolyline
90
4
70
1
43
0.0
10
5.0000000000000755
20
-50.249999999999957
10
5.0000000000000755
20
-59.249999999999964
10
7.0000000000000817
20
-59.249999999999964
10
7.0000000000000817
20
-50.249999999999957
0
LWPOLYLINE
5
118
100
AcDbEntity
8
0
100
AcDbPolyline
90
4
70
1
43
0.0
10
21.000000000000071
20
-50.249999999999957
10
21.000000000000071
20
-59.249999999999964
10
23.000000000000078
20
-59.249999999999964
10
23.000000000000078
20
-50.249999999999957
0
LWPOLYLINE
5
119
100
AcDbEntity
8
0
100
AcDbPolyline
90
4
70
1
43
0.0
10
37.000000000000071
20
-50.249999999999957
10
37.000000000000071
20
-59.249999999999972
10
39.000000000000071
20
-59.249999999999972
10
39.000000000000071
20
-50.249999999999957
0
LWPOLYLINE
5
120
100
AcDbEntity
8
0
100
AcDbPolyline
90
132
70
1
43
0.0
10
-49.499999999999922
20
16.750000000000071
10
-49.500000000000028
20
28.000000000000036
10
49.499999999999957
20
28.00000000000005
10
49.499999999999893
20
16.750000000000071
10
58.499999999999901
20
16.750000000000071
10
58.499999999999901
20
14.750000000000071
10
49.499999999999893
20
14.750000000000068
10
49.499999999999893
20
12.750000000000075
10
58.499999999999901
20
12.750000000000071
10
58.499999999999901
20
10.750000000000073
10
49.499999999999893
20
10.750000000000064
10
49.499999999999893
20
8.7500000000000711
10
58.499999999999901
20
8.7500000000000711
10
58.499999999999901
20
6.7500000000000737
10
49.499999999999893
20
6.7500000000000693
10
49.499999999999893
20
4.7500000000000675
10
58.499999999999901
20
4.7500000000000719
10
58.499999999999901
20
2.7500000000000746
10
49.499999999999893
20
2.7500000000000746
10
49.499999999999893
20
0.75000000000007283
10
58.499999999999901
20
0.75000000000007283
10
58.499999999999901
20
-1.2499999999999245
10
49.499999999999893
20
-1.2499999999999289
10
49.499999999999893
20
-3.2499999999999218
10
58.499999999999901
20
-3.2499999999999263
10
58.499999999999901
20
-5.2499999999999236
10
49.499999999999893
20
-5.2499999999999325
10
49.499999999999893
20
-7.2499999999999254
10
58.499999999999901
20
-7.2499999999999254
10
58.499999999999901
20
-9.2499999999999218
10
49.499999999999893
20
-9.2499999999999272
10
49.499999999999893
20
-11.249999999999929
10
58.499999999999901
20
-11.249999999999925
10
58.499999999999901
20
-13.249999999999922
10
49.499999999999893
20
-13.249999999999922
10
49.499999999999901
20
-15.249999999999924
10
58.499999999999901
20
-15.249999999999924
10
58.499999999999901
20
-17.249999999999922
10
49.499999999999901
20
-17.249999999999925
10
49.499999999999901
20
-19.249999999999918
10
58.499999999999901
20
-19.249999999999922
10
58.499999999999901
20
-21.249999999999922
10
49.499999999999901
20
-21.249999999999929
10
49.499999999999901
20
-23.249999999999922
10
58.499999999999901
20
-23.249999999999922
10
58.499999999999901
20
-25.249999999999918
10
49.499999999999901
20
-25.249999999999922
10
49.499999999999901
20
-27.249999999999922
10
58.499999999999901
20
-27.249999999999915
10
58.499999999999901
20
-29.249999999999915
10
49.499999999999901
20
-29.249999999999918
10
49.499999999999901
20
-31.249999999999915
10
58.499999999999901
20
-31.249999999999922
10
58.499999999999901
20
-33.249999999999915
10
49.499999999999901
20
-33.249999999999922
10
49.499999999999901
20
-35.249999999999922
10
58.499999999999901
20
-35.249999999999922
10
58.499999999999901
20
-37.249999999999922
10
49.499999999999901
20
-37.249999999999929
10
49.499999999999901
20
-39.249999999999922
10
58.499999999999901
20
-39.249999999999915
10
58.499999999999901
20
-41.249999999999915
10
49.499999999999901
20
-41.249999999999922
10
49.499999999999901
20
-43.249999999999922
10
58.499999999999901
20
-43.249999999999922
10
58.499999999999901
20
-45.249999999999915
10
49.499999999999901
20
-45.249999999999922
10
49.49999999999995
20
-63.249999999999901
10
-49.500000000000036
20
-63.249999999999893
10
-49.499999999999929
20
-45.249999999999915
10
-58.499999999999929
20
-45.249999999999915
10
-58.499999999999929
20
-43.249999999999922
10
-49.499999999999929
20
-43.249999999999929
10
-49.499999999999929
20
-41.249999999999922
10
-58.499999999999929
20
-41.249999999999915
10
-58.499999999999929
20
-39.249999999999915
10
-49.499999999999929
20
-39.249999999999922
10
-49.499999999999929
20
-37.249999999999929
10
-58.499999999999929
20
-37.249999999999922
10
-58.499999999999929
20
-35.249999999999922
10
-49.499999999999929
20
-35.249999999999922
10
-49.499999999999929
20
-33.249999999999922
10
-58.499999999999929
20
-33.249999999999915
10
-58.499999999999929
20
-31.249999999999922
10
-49.499999999999929
20
-31.249999999999915
10
-49.499999999999929
20
-29.249999999999918
10
-58.499999999999929
20
-29.249999999999915
10
-58.499999999999929
20
-27.249999999999915
10
-49.499999999999929
20
-27.249999999999922
10
-49.499999999999929
20
-25.249999999999922
10
-58.499999999999929
20
-25.249999999999918
10
-58.499999999999929
20
-23.249999999999922
10
-49.499999999999929
20
-23.249999999999922
10
-49.499999999999929
20
-21.249999999999929
10
-58.499999999999929
20
-21.249999999999922
10
-58.499999999999929
20
-19.249999999999922
10
-49.499999999999929
20
-19.249999999999918
10
-49.499999999999929
20
-17.249999999999925
10
-58.499999999999929
20
-17.249999999999922
10
-58.499999999999929
20
-15.249999999999924
10
-49.499999999999929
20
-15.249999999999924
10
-49.499999999999922
20
-13.249999999999922
10
-58.499999999999929
20
-13.249999999999922
10
-58.499999999999929
20
-11.249999999999925
10
-49.499999999999922
20
-11.249999999999929
10
-49.499999999999922
20
-9.2499999999999272
10
-58.499999999999929
20
-9.2499999999999218
10
-58.499999999999929
20
-7.2499999999999254
10
-49.499999999999922
20
-7.2499999999999254
10
-49.499999999999922
20
-5.2499999999999325
10
-58.499999999999929
20
-5.2499999999999236
10
-58.499999999999929
20
-3.2499999999999263
10
-49.499999999999922
20
-3.2499999999999218
10
-49.499999999999922
20
-1.2499999999999289
10
-58.499999999999929
20
-1.2499999999999245
10
-58.499999999999929
20
0.75000000000007283
10
-49.499999999999922
20
0.75000000000007283
10
-49.499999999999922
20
2.7500000000000746
10
-58.499999999999929
20
2.7500000000000746
10
-58.499999999999929
20
4.7500000000000719
10
-49.499999999999922
20
4.7500000000000675
10
-49.499999999999922
20
6.7500000000000693
10
-58.499999999999929
20
6.7500000000000737
10
-58.499999999999929
20
8.7500000000000711
10
-49.499999999999922
20
8.7500000000000711
10
-49.499999999999922
20
10.750000000000064
10
-58.499999999999929
20
10.750000000000073
10
-58.499999999999929
20
12.750000000000071
10
-49.499999999999922
20
12.750000000000075
10
-49.499999999999922
20
14.750000000000068
10
-58.499999999999929
20
14.750000000000071
10
-58.499999999999929
20
16.750000000000071
0
LWPOLYLINE
5
121
100
AcDbEntity
8
0
100
AcDbPolyline
90
132
70
1
43
0.0
10
-58.629999999999924
20
16.880000000000067
10
-49.629999999999924
20
16.880000000000067
10
-49.630000000000024
20
28.130000000000031
10
49.629999999999953
20
28.130000000000052
10
49.629999999999896
20
16.880000000000067
10
58.629999999999896
20
16.880000000000067
10
58.629999999999896
20
14.620000000000072
10
49.629999999999896
20
14.620000000000068
10
49.629999999999896
20
12.880000000000074
10
58.629999999999896
20
12.88000000000007
10
58.629999999999896
20
10.620000000000074
10
49.629999999999896
20
10.620000000000065
10
49.629999999999896
20
8.8800000000000718
10
58.629999999999896
20
8.8800000000000718
10
58.629999999999896
20
6.6200000000000738
10
49.629999999999896
20
6.6200000000000694
10
49.629999999999896
20
4.8800000000000674
10
58.629999999999896
20
4.8800000000000718
10
58.629999999999896
20
2.6200000000000747
10
49.629999999999896
20
2.6200000000000747
10
49.629999999999896
20
0.88000000000007284
10
58.629999999999896
20
0.88000000000007295
10
58.629999999999896
20
-1.3799999999999246
10
49.629999999999896
20
-1.3799999999999291
10
49.629999999999896
20
-3.1199999999999219
10
58.629999999999896
20
-3.1199999999999264
10
58.629999999999896
20
-5.3799999999999235
10
49.629999999999896
20
-5.3799999999999324
10
49.629999999999896
20
-7.1199999999999255
10
58.629999999999896
20
-7.1199999999999255
10
58.629999999999896
20
-9.3799999999999226
10
49.629999999999896
20
-9.379999999999928
10
49.629999999999896
20
-11.11999999999993
10
58.629999999999896
20
-11.119999999999926
10
58.629999999999896
20
-13.379999999999921
10
49.629999999999896
20
-13.379999999999921
10
49.629999999999903
20
-15.119999999999925
10
58.629999999999896
20
-15.119999999999925
10
58.629999999999896
20
-17.379999999999921
10
49.629999999999903
20
-17.379999999999924
10
49.629999999999903
20
-19.119999999999919
10
58.629999999999896
20
-19.119999999999923
10
58.629999999999896
20
-21.379999999999917
10
49.629999999999903
20
-21.379999999999928
10
49.629999999999903
20
-23.119999999999923
10
58.629999999999896
20
-23.119999999999923
10
58.629999999999896
20
-25.379999999999917
10
49.629999999999903
20
-25.379999999999924
10
49.629999999999903
20
-27.119999999999923
10
58.629999999999896
20
-27.119999999999919
10
58.629999999999896
20
-29.379999999999914
10
49.629999999999903
20
-29.379999999999917
10
49.629999999999903
20
-31.119999999999916
10
58.629999999999896
20
-31.119999999999919
10
58.629999999999896
20
-33.379999999999917
10
49.629999999999903
20
-33.379999999999924
10
49.629999999999903
20
-35.119999999999919
10
58.629999999999896
20
-35.119999999999926
10
58.629999999999896
20
-37.379999999999917
10
49.629999999999903
20
-37.379999999999924
10
49.629999999999903
20
-39.119999999999926
10
58.629999999999896
20
-39.119999999999912
10
58.629999999999896
20
-41.37999999999991
10
49.629999999999903
20
-41.379999999999917
10
49.629999999999903
20
-43.119999999999919
10
58.629999999999896
20
-43.119999999999919
10
58.629999999999896
20
-45.37999999999991
10
49.629999999999903
20
-45.379999999999924
10
49.629999999999946
20
-63.379999999999903
10
-49.630000000000038
20
-63.379999999999896
10
-49.629999999999932
20
-45.37999999999991
10
-58.629999999999924
20
-45.37999999999991
10
-58.629999999999924
20
-43.119999999999919
10
-49.629999999999932
20
-43.119999999999933
10
-49.629999999999932
20
-41.379999999999917
10
-58.629999999999924
20
-41.37999999999991
10
-58.629999999999924
20
-39.119999999999919
10
-49.629999999999932
20
-39.119999999999926
10
-49.629999999999932
20
-37.379999999999924
10
-58.629999999999924
20
-37.379999999999917
10
-58.629999999999924
20
-35.119999999999926
10
-49.629999999999932
20
-35.119999999999919
10
-49.629999999999932
20
-33.379999999999924
10
-58.629999999999924
20
-33.379999999999917
10
-58.629999999999924
20
-31.119999999999919
10
-49.629999999999932
20
-31.119999999999916
10
-49.629999999999932
20
-29.379999999999917
10
-58.629999999999924
20
-29.379999999999914
10
-58.629999999999924
20
-27.119999999999919
10
-49.629999999999932
20
-27.119999999999923
10
-49.629999999999932
20
-25.379999999999924
10
-58.629999999999924
20
-25.379999999999917
10
-58.629999999999924
20
-23.119999999999923
10
-49.629999999999932
20
-23.119999999999923
10
-49.629999999999932
20
-21.379999999999928
10
-58.629999999999924
20
-21.379999999999917
10
-58.629999999999924
20
-19.119999999999923
10
-49.629999999999932
20
-19.119999999999919
10
-49.629999999999932
20
-17.379999999999924
10
-58.629999999999924
20
-17.379999999999921
10
-58.629999999999924
20
-15.119999999999925
10
-49.629999999999932
20
-15.119999999999925
10
-49.629999999999924
20
-13.379999999999921
10
-58.629999999999924
20
-13.379999999999921
10
-58.629999999999924
20
-11.119999999999926
10
-49.629999999999924
20
-11.11999999999993
10
-49.629999999999924
20
-9.379999999999928
10
-58.629999999999924
20
-9.3799999999999226
10
-58.629999999999924
20
-7.1199999999999255
10
-49.629999999999924
20
-7.1199999999999255
10
-49.629999999999924
20
-5.3799999999999324
10
-58.629999999999924
20
-5.3799999999999235
10
-58.629999999999924
20
-3.1199999999999264
10
-49.629999999999924
20
-3.1199999999999219
10
-49.629999999999924
20
-1.3799999999999291
10
-58.629999999999924
20
-1.3799999999999246
10
-58.629999999999924
20
0.88000000000007284
10
-49.629999999999924
20
0.88000000000007295
10
-49.629999999999924
20
2.6200000000000747
10
-58.629999999999924
20
2.6200000000000747
10
-58.629999999999924
20
4.8800000000000718
10
-49.629999999999924
20
4.8800000000000674
10
-49.629999999999924
20
6.6200000000000694
10
-58.629999999999924
20
6.6200000000000738
10
-58.629999999999924
20
8.8800000000000718
10
-49.629999999999924
20
8.8800000000000718
10
-49.629999999999924
20
10.620000000000065
10
-58.629999999999924
20
10.620000000000074
10
-58.629999999999924
20
12.88000000000007
10
-49.629999999999924
20
12.880000000000074
10
-49.629999999999924
20
14.620000000000068
10
-58.629999999999924
20
14.620000000000072
0
LWPOLYLINE
5
122
100
AcDbEntity
8
0
100
AcDbPolyline
90
4
70
1
43
0.0
10
-38.869999999999912
20
-50.379999999999967
10
-38.869999999999912
20
-59.119999999999983
10
-37.129999999999903
20
-59.119999999999976
10
-37.129999999999903
20
-50.379999999999974
0
LWPOLYLINE
5
123
100
AcDbEntity
8
0
100
AcDbPolyline
90
4
70
1
43
0.0
10
-34.869999999999919
20
-50.379999999999967
10
-34.869999999999919
20
-59.119999999999983
10
-33.12999999999991
20
-59.119999999999976
10
-33.12999999999991
20
-50.37999999999996
0
LWPOLYLINE
5
124
100
AcDbEntity
8
0
100
AcDbPolyline
90
4
70
1
43
0.0
10
-30.869999999999923
20
-50.37999999999996
10
-30.869999999999923
20
-59.119999999999962
10
-29.129999999999914
20
-59.119999999999962
10
-29.129999999999914
20
-50.37999999999996
0
LWPOLYLINE
5
125
100
AcDbEntity
8
0
100
AcDbPolyline
90
4
70
1
43
0.0
10
-26.869999999999919
20
-50.37999999999996
10
-26.869999999999919
20
-59.119999999999962
10
-25.12999999999991
20
-59.119999999999962
10
-25.12999999999991
20
-50.37999999999996
0
LWPOLYLINE
5
126
100
AcDbEntity
8
0
100
AcDbPolyline
90
4
70
1
43
0.0
10
-22.869999999999916
20
-50.379999999999967
10
-22.869999999999916
20
-59.119999999999976
10
-21.129999999999907
20
-59.119999999999976
10
-21.129999999999907
20
-50.379999999999967
0
LWPOLYLINE
5
127
100
AcDbEntity
8
0
100
AcDbPolyline
90
4
70
1
43
0.0
10
-18.869999999999919
20
-50.37999999999996
10
-18.869999999999919
20
-59.119999999999976
10
-17.12999999999991
20
-59.119999999999976
10
-17.12999999999991
20
-50.379999999999967
0
LWPOLYLINE
5
128
100
AcDbEntity
8
0
100
AcDbPolyline
90
4
70
1
43
0.0
10
-14.869999999999926
20
-50.37999999999996
10
-14.869999999999926
20
-59.119999999999962
10
-13.129999999999917
20
-59.119999999999962
10
-13.129999999999917
20
-50.37999999999996
0
LWPOLYLINE
5
129
100
AcDbEntity
8
0
100
AcDbPolyline
90
4
70
1
43
0.0
10
-10.869999999999923
20
-50.37999999999996
10
-10.869999999999923
20
-59.119999999999962
10
-9.1299999999999155
20
-59.119999999999962
10
-9.1299999999999155
20
-50.37999999999996
0
LWPOLYLINE
5
130
100
AcDbEntity
8
0
100
AcDbPolyline
90
4
70
1
43
0.0
10
-6.8699999999999175
20
-50.379999999999967
10
-6.8699999999999175
20
-59.119999999999976
10
-5.1299999999999111
20
-59.119999999999976
10
-5.1299999999999111
20
-50.379999999999967
0
LWPOLYLINE
5
131
100
AcDbEntity
8
0
100
AcDbPolyline
90
4
70
1
43
0.0
10
-2.8699999999999228
20
-50.37999999999996
10
-2.8699999999999228
20
-59.119999999999976
10
-1.1299999999999164
20
-59.119999999999976
10
-1.1299999999999166
20
-50.379999999999974
0
LWPOLYLINE
5
132
100
AcDbEntity
8
0
100
AcDbPolyline
90
4
70
1
43
0.0
10
1.1300000000000763
20
-50.37999999999996
10
1.1300000000000765
20
-59.119999999999976
10
2.8700000000000827
20
-59.119999999999976
10
2.8700000000000827
20
-50.37999999999996
0
LWPOLYLINE
5
133
100
AcDbEntity
8
0
100
AcDbPolyline
90
4
70
1
43
0.0
10
5.1300000000000754
20
-50.37999999999996
10
5.1300000000000754
20
-59.119999999999962
10
6.8700000000000818
20
-59.119999999999962
10
6.8700000000000818
20
-50.37999999999996
0
LWPOLYLINE
5
134
100
AcDbEntity
8
0
100
AcDbPolyline
90
4
70
1
43
0.0
10
9.1300000000000754
20
-50.379999999999967
10
9.1300000000000754
20
-59.119999999999976
10
10.870000000000083
20
-59.119999999999976
10
10.870000000000083
20
-50.379999999999967
0
LWPOLYLINE
5
135
100
AcDbEntity
8
0
100
AcDbPolyline
90
4
70
1
43
0.0
10
13.130000000000074
20
-50.379999999999967
10
13.130000000000074
20
-59.119999999999976
10
14.870000000000081
20
-59.119999999999976
10
14.870000000000081
20
-50.379999999999967
0
LWPOLYLINE
5
136
100
AcDbEntity
8
0
100
AcDbPolyline
90
4
70
1
43
0.0
10
18.870000000000079
20
-59.119999999999976
10
18.870000000000079
20
-50.379999999999967
10
17.130000000000074
20
-50.37999999999996
10
17.130000000000074
20
-59.119999999999976
0
LWPOLYLINE
5
137
100
AcDbEntity
8
0
100
AcDbPolyline
90
4
70
1
43
0.0
10
26.870000000000079
20
-59.119999999999976
10
26.870000000000079
20
-50.379999999999967
10
25.13000000000007
20
-50.379999999999967
10
25.13000000000007
20
-59.119999999999976
0
LWPOLYLINE
5
138
100
AcDbEntity
8
0
100
AcDbPolyline
90
4
70
1
43
0.0
10
21.13000000000007
20
-50.37999999999996
10
21.13000000000007
20
-59.119999999999962
10
22.870000000000079
20
-59.119999999999962
10
22.870000000000079
20
-50.37999999999996
0
LWPOLYLINE
5
139
100
AcDbEntity
8
0
100
AcDbPolyline
90
4
70
1
43
0.0
10
30.870000000000076
20
-59.119999999999976
10
30.870000000000076
20
-50.379999999999967
10
29.13000000000007
20
-50.379999999999967
10
29.13000000000007
20
-59.119999999999976
0
LWPOLYLINE
5
140
100
AcDbEntity
8
0
100
AcDbPolyline
90
4
70
1
43
0.0
10
34.870000000000076
20
-59.119999999999976
10
34.870000000000076
20
-50.379999999999974
10
33.130000000000067
20
-50.37999999999996
10
33.130000000000067
20
-59.119999999999976
0
LWPOLYLINE
5
141
100
AcDbEntity
8
0
100
AcDbPolyline
90
4
70
1
43
0.0
10
38.870000000000076
20
-59.119999999999976
10
38.870000000000076
20
-50.37999999999996
10
37.130000000000067
20
-50.37999999999996
10
37.130000000000067
20
-59.119999999999976
0
ENDSEC
0
SECTION
2
OBJECTS
0
DICTIONARY
5
C
100
AcDbDictionary
3
ACAD_GROUP
350
D
3
ACAD_MLINESTYLE
350
17
0
DICTIONARY
5
D
100
AcDbDictionary
0
DICTIONARY
5
1A
330
C
100
AcDbDictionary
0
DICTIONARY
5
17
100
AcDbDictionary
0
ENDSEC
0
EOF
