0
SECTION
2
HEADER
9
$INSUNITS
70
4
9
$ACADVER
1
AC1014
9
$HANDSEED
5
FFFF
0
ENDSEC
0
SECTION
2
TABLES
0
TABLE
2
VPORT
5
8
100
AcDbSymbolTable
0
ENDTAB
0
TABLE
2
LTYPE
5
5
100
AcDbSymbolTable
0
LTYPE
5
14
100
AcDbSymbolTableRecord
100
AcDbLinetypeTableRecord
2
BYBLOCK
70
0
0
LTYPE
5
15
100
AcDbSymbolTableRecord
100
AcDbLinetypeTableRecord
2
BYLAYER
70
0
0
ENDTAB
0
TABLE
2
LAYER
5
2
100
AcDbSymbolTable
70
2
0
LAYER
5
50
100
AcDbSymbolTableRecord
100
AcDbLayerTableRecord
2
0
70
0
6
CONTINUOUS
0
ENDTAB
0
TABLE
2
STYLE
5
3
100
AcDbSymbolTable
70
1
0
STYLE
5
11
100
AcDbSymbolTableRecord
100
AcDbTextStyleTableRecord
2
STANDARD
70
0
0
ENDTAB
0
TABLE
2
VIEW
5
6
100
AcDbSymbolTable
70
0
0
ENDTAB
0
TABLE
2
UCS
5
7
100
AcDbSymbolTable
70
0
0
ENDTAB
0
TABLE
2
APPID
5
9
100
AcDbSymbolTable
70
2
0
APPID
5
12
100
AcDbSymbolTableRecord
100
AcDbRegAppTableRecord
2
ACAD
70
0
0
ENDTAB
0
TABLE
2
DIMSTYLE
5
A
100
AcDbSymbolTable
70
1
0
ENDTAB
0
TABLE
2
BLOCK_RECORD
5
1
100
AcDbSymbolTable
70
1
0
BLOCK_RECORD
5
1F
100
AcDbSymbolTableRecord
100
AcDbBlockTableRecord
2
*MODEL_SPACE
0
BLOCK_RECORD
5
1B
100
AcDbSymbolTableRecord
100
AcDbBlockTableRecord
2
*PAPER_SPACE
0
ENDTAB
0
ENDSEC
0
SECTION
2
BLOCKS
0
BLOCK
5
20
100
AcDbEntity
100
AcDbBlockBegin
2
*MODEL_SPACE
0
ENDBLK
5
21
100
AcDbEntity
100
AcDbBlockEnd
0
BLOCK
5
1C
100
AcDbEntity
100
AcDbBlockBegin
2
*PAPER_SPACE
0
ENDBLK
5
1D
100
AcDbEntity
100
AcDbBlockEnd
0
ENDSEC
0
SECTION
2
ENTITIES
0
LWPOLYLINE
5
100
100
AcDbEntity
8
0
100
AcDbPolyline
90
4
70
1
43
0.0
10
-13.999999999999915
20
-59.249999999999957
10
-13.999999999999915
20
-50.24999999999995
10
-9.9999999999999183
20
-50.24999999999995
10
-9.9999999999999183
20
-59.249999999999957
0
LWPOLYLINE
5
101
100
AcDbEntity
8
0
100
AcDbPolyline
90
4
70
1
43
0.0
10
2.0000000000000795
20
-59.249999999999964
10
2.0000000000000795
20
-50.24999999999995
10
6.0000000000000782
20
-50.24999999999995
10
6.0000000000000782
20
-59.249999999999972
0
LWPOLYLINE
5
102
100
AcDbEntity
8
0
100
AcDbPolyline
90
4
70
1
43
0.0
10
10.000000000000082
20
-59.249999999999972
10
10.000000000000082
20
-50.249999999999972
10
14.000000000000082
20
-50.249999999999972
10
14.000000000000082
20
-59.249999999999972
0
LWPOLYLINE
5
103
100
AcDbEntity
8
0
100
AcDbPolyline
90
4
70
1
43
0.0
10
-21.999999999999922
20
-59.249999999999964
10
-21.999999999999922
20
-50.24999999999995
10
-17.999999999999925
20
-50.249999999999972
10
-17.999999999999925
20
-59.249999999999972
0
LWPOLYLINE
5
104
100
AcDbEntity
8
0
100
AcDbPolyline
90
4
70
1
43
0.0
10
26.000000000000085
20
-59.249999999999972
10
26.000000000000085
20
-50.249999999999972
10
30.000000000000078
20
-50.249999999999972
10
30.000000000000078
20
-59.249999999999972
0
LWPOLYLINE
5
105
100
AcDbEntity
8
0
100
AcDbPolyline
90
4
70
1
43
0.0
10
-5.9999999999999183
20
-59.249999999999972
10
-5.9999999999999183
20
-50.249999999999972
10
-1.9999999999999194
20
-50.249999999999972
10
-1.9999999999999196
20
-59.249999999999972
0
LWPOLYLINE
5
106
100
AcDbEntity
8
0
100
AcDbPolyline
90
4
70
1
43
0.0
10
18.000000000000082
20
-59.249999999999964
10
18.000000000000082
20
-50.24999999999995
10
22.000000000000082
20
-50.24999999999995
10
22.000000000000082
20
-59.249999999999972
0
LWPOLYLINE
5
107
100
AcDbEntity
8
0
100
AcDbPolyline
90
4
70
1
43
0.0
10
-29.999999999999961
20
-50.250000000000043
10
-25.999999999999964
20
-50.250000000000043
10
-25.999999999999964
20
-59.250000000000043
10
-29.999999999999961
20
-59.250000000000043
0
LWPOLYLINE
5
108
100
AcDbEntity
8
0
100
AcDbPolyline
90
52
70
1
43
0.0
10
-49.500000000000028
20
28.000000000000036
10
-49.499999999999922
20
7.7500000000000835
10
-58.499999999999929
20
7.7500000000000853
10
-58.499999999999929
20
3.7500000000000884
10
-49.499999999999922
20
3.7500000000000795
10
-49.499999999999922
20
-0.24999999999991473
10
-58.499999999999929
20
-0.24999999999991473
10
-58.499999999999929
20
-4.2499999999999112
10
-49.499999999999922
20
-4.2499999999999183
10
-49.499999999999922
20
-8.249999999999913
10
-58.499999999999929
20
-8.2499999999999147
10
-58.499999999999929
20
-12.249999999999911
10
-49.499999999999922
20
-12.249999999999917
10
-49.499999999999929
20
-16.249999999999911
10
-58.499999999999929
20
-16.249999999999918
10
-58.499999999999929
20
-20.249999999999915
10
-49.499999999999929
20
-20.249999999999922
10
-49.499999999999929
20
-24.249999999999918
10
-58.499999999999929
20
-24.249999999999918
10
-58.499999999999929
20
-28.249999999999915
10
-49.499999999999929
20
-28.249999999999922
10
-49.499999999999929
20
-32.249999999999915
10
-58.499999999999929
20
-32.249999999999908
10
-58.499999999999929
20
-36.249999999999915
10
-49.499999999999929
20
-36.249999999999922
10
-49.500000000000036
20
-63.249999999999901
10
49.499999999999964
20
-63.249999999999901
10
49.499999999999901
20
-36.249999999999922
10
58.499999999999901
20
-36.249999999999915
10
58.499999999999901
20
-32.249999999999908
10
49.499999999999901
20
-32.249999999999915
10
49.499999999999901
20
-28.249999999999922
10
58.499999999999901
20
-28.249999999999915
10
58.499999999999901
20
-24.249999999999918
10
49.499999999999901
20
-24.249999999999918
10
49.499999999999901
20
-20.249999999999922
10
58.499999999999901
20
-20.249999999999915
10
58.499999999999901
20
-16.249999999999918
10
49.499999999999901
20
-16.249999999999911
10
49.499999999999893
20
-12.249999999999917
10
58.499999999999901
20
-12.249999999999911
10
58.499999999999901
20
-8.2499999999999147
10
49.499999999999893
20
-8.249999999999913
10
49.499999999999893
20
-4.2499999999999183
10
58.499999999999901
20
-4.2499999999999112
10
58.499999999999901
20
-0.24999999999991473
10
49.499999999999893
20
-0.24999999999991473
10
49.499999999999893
20
3.7500000000000795
10
58.499999999999901
20
3.7500000000000884
10
58.499999999999901
20
7.7500000000000853
10
49.499999999999893
20
7.7500000000000835
10
49.499999999999957
20
28.00000000000005
0
LWPOLYLINE
5
109
100
AcDbEntity
8
0
100
AcDbPolyline
90
4
70
1
43
0.0
10
26.000000000000085
20
-50.349999999999966
10
30.000000000000078
20
-50.349999999999966
10
30.000000000000078
20
-59.149999999999977
10
26.000000000000085
20
-59.149999999999977
0
LWPOLYLINE
5
110
100
AcDbEntity
8
0
100
AcDbPolyline
90
4
70
1
43
0.0
10
18.000000000000085
20
-50.349999999999966
10
22.000000000000082
20
-50.349999999999966
10
22.000000000000082
20
-59.149999999999977
10
18.000000000000085
20
-59.149999999999977
0
LWPOLYLINE
5
111
100
AcDbEntity
8
0
100
AcDbPolyline
90
4
70
1
43
0.0
10
10.000000000000085
20
-50.349999999999966
10
14.000000000000078
20
-50.349999999999966
10
14.000000000000078
20
-59.149999999999977
10
10.000000000000085
20
-59.149999999999977
0
LWPOLYLINE
5
112
100
AcDbEntity
8
0
100
AcDbPolyline
90
4
70
1
43
0.0
10
2.0000000000000817
20
-50.349999999999966
10
6.0000000000000764
20
-50.349999999999966
10
6.0000000000000764
20
-59.149999999999977
10
2.0000000000000817
20
-59.149999999999977
0
LWPOLYLINE
5
113
100
AcDbEntity
8
0
100
AcDbPolyline
90
4
70
1
43
0.0
10
-5.9999999999999165
20
-50.349999999999966
10
-1.9999999999999218
20
-50.349999999999966
10
-1.9999999999999218
20
-59.149999999999977
10
-5.9999999999999165
20
-59.149999999999977
0
LWPOLYLINE
5
114
100
AcDbEntity
8
0
100
AcDbPolyline
90
4
70
1
43
0.0
10
-13.999999999999915
20
-50.349999999999966
10
-9.9999999999999201
20
-50.349999999999966
10
-9.9999999999999201
20
-59.149999999999977
10
-13.999999999999915
20
-59.149999999999977
0
LWPOLYLINE
5
115
100
AcDbEntity
8
0
100
AcDbPolyline
90
4
70
1
43
0.0
10
-21.999999999999922
20
-50.349999999999966
10
-17.999999999999929
20
-50.349999999999966
10
-17.999999999999929
20
-59.149999999999977
10
-21.999999999999922
20
-59.149999999999977
0
LWPOLYLINE
5
116
100
AcDbEntity
8
0
100
AcDbPolyline
90
4
70
1
43
0.0
10
-29.999999999999922
20
-50.349999999999966
10
-25.999999999999925
20
-50.349999999999966
10
-25.999999999999925
20
-59.149999999999977
10
-29.999999999999922
20
-59.149999999999977
0
ENDSEC
0
SECTION
2
OBJECTS
0
DICTIONARY
5
C
100
AcDbDictionary
3
ACAD_GROUP
350
D
3
ACAD_MLINESTYLE
350
17
0
DICTIONARY
5
D
100
AcDbDictionary
0
DICTIONARY
5
1A
330
C
100
AcDbDictionary
0
DICTIONARY
5
17
100
AcDbDictionary
0
ENDSEC
0
EOF
